<?xml version="1.0" encoding="UTF-8" standalone="no"?>
<!-- Created with Inkscape (http://www.inkscape.org/) -->

<svg
   width="34.955124mm"
   height="44.762646mm"
   viewBox="0 0 34.955124 44.762646"
   version="1.1"
   id="svg1"
   xml:space="preserve"
   inkscape:version="1.4 (86a8ad7, 2024-10-11)"
   sodipodi:docname="Write-it-down-small.svg"
   xmlns:inkscape="http://www.inkscape.org/namespaces/inkscape"
   xmlns:sodipodi="http://sodipodi.sourceforge.net/DTD/sodipodi-0.dtd"
   xmlns="http://www.w3.org/2000/svg"
   xmlns:svg="http://www.w3.org/2000/svg"><sodipodi:namedview
     id="namedview1"
     pagecolor="#ffffff"
     bordercolor="#000000"
     borderopacity="0.25"
     inkscape:showpageshadow="2"
     inkscape:pageopacity="0.0"
     inkscape:pagecheckerboard="0"
     inkscape:deskcolor="#d1d1d1"
     inkscape:document-units="mm"
     inkscape:zoom="4"
     inkscape:cx="29"
     inkscape:cy="75.375"
     inkscape:window-width="1920"
     inkscape:window-height="1009"
     inkscape:window-x="1912"
     inkscape:window-y="-8"
     inkscape:window-maximized="1"
     inkscape:current-layer="layer1"><inkscape:page
       x="0"
       y="0"
       width="34.955124"
       height="44.762646"
       id="page2"
       margin="0"
       bleed="0" /></sodipodi:namedview><defs
     id="defs1" /><g
     inkscape:label="Layer 1"
     inkscape:groupmode="layer"
     id="layer1"
     transform="translate(-74.761494,-236.35945)"><path
       id="path99-1"
       style="fill:#000000;stroke-width:0.369641"
       d="m 106.89469,252.94486 c -0.96619,1.4566 -3.78945,4.64594 -7.526946,6.06385 1.370366,1.74759 2.601406,5.57126 -1.28726,8.87595 -3.654237,3.10546 -13.476129,-2.21489 -17.052189,12.98112 4.575874,-6.23262 6.331777,-3.52122 11.458215,-2.9006 11.27959,1.36553 21.97171,-12.02116 14.40818,-25.02032 z"
       sodipodi:nodetypes="ccscsc" /><path
       id="path13"
       style="fill:#000000;fill-opacity:1;stroke:none;stroke-width:1.54515;stroke-linejoin:round;stroke-dasharray:none;stroke-opacity:1"
       d="m 83.454757,266.42691 v -9.22063 c 0,-0.35527 -0.286038,-0.6413 -0.641305,-0.6413 h -2.739884 c -0.355267,0 -0.641305,0.28603 -0.641305,0.6413 v 15.04094 c 0,0.35527 0.286038,0.64131 0.641305,0.64131 h 1.067635 c 0.494398,-1.97485 1.206455,-4.16517 2.313554,-6.46162 z"
       sodipodi:nodetypes="csssssscc" /><path
       id="path8"
       style="fill:#0f766e;fill-opacity:1;stroke:none;stroke-width:1.384;stroke-linejoin:round;stroke-dasharray:none;stroke-opacity:1"
       d="m 94.543963,250.93639 v -4.2013 c 0,-0.28503 -0.229153,-0.51469 -0.51418,-0.51469 h -2.993616 c -0.285028,0 -0.514697,0.22966 -0.514697,0.51469 v 8.54573 c 0.971394,-1.29698 2.293099,-2.71618 4.022493,-4.34443 z"
       sodipodi:nodetypes="csssscc" /><path
       id="path11"
       style="fill:#15803d;fill-opacity:1;stroke:none;stroke-width:1.384;stroke-linejoin:round;stroke-dasharray:none;stroke-opacity:1"
       d="m 88.912558,257.61324 v -5.92677 c 0,-0.28503 -0.229153,-0.5147 -0.514181,-0.5147 h -2.993615 c -0.285028,0 -0.514698,0.22967 -0.514698,0.5147 v 11.92433 c 1.093888,-2.15188 2.594158,-4.15973 4.022494,-5.99756 z"
       sodipodi:nodetypes="csssscc" /><path
       id="path18"
       style="fill:none;fill-opacity:1;stroke:#000000;stroke-width:1.38405;stroke-linejoin:round;stroke-dasharray:none;stroke-opacity:1"
       d="M 80.622313 273.38851 A 16.615322 16.615322 0 0 1 75.732502 261.61646 A 16.615322 16.615322 0 0 1 92.347824 245.00113 A 16.615322 16.615322 0 0 1 98.633436 246.23595 " /><path
       style="display:inline;fill:#ff8100;fill-opacity:1;stroke-width:0.35654"
       d="m 89.173664,258.61113 c 2.53381,-3.65489 4.35018,-5.7407 9.25656,-10.62963 9.504436,-9.47063 8.069326,-11.37261 8.477626,-11.62205 0.55901,0.74692 1.01785,2.59394 1.28243,4.53769 0.22155,1.62754 0.22451,4.30734 0.006,5.62427 -0.59381,3.58236 -2.30972,6.58683 -5.18843,9.08468 -0.9961,0.8643 -2.06636,1.57671 -4.275236,2.84577 -6.746517,3.87604 -6.533715,6.05239 -4.06235,5.11787 -0.372462,1.07892 -1.833302,2.65844 -2.83287,1.29458 -0.25573,-0.47659 -0.14984,-1.64344 0.21728,-2.39418 0.44001,-0.89981 1.36994,-2.04563 2.6652,-3.28395 1.1184,-1.06923 1.88543,-1.66978 4.64084,-3.63361 1.673426,-1.19268 3.181136,-2.49355 3.916316,-3.37905 2.26753,-2.73118 3.50991,-6.33618 3.53508,-10.25774 0.01,-1.50572 0.0576,-2.12677 -0.12038,-2.43686 -4.09916,8.22281 -9.924854,11.51827 -15.338096,18.92074 -5.375136,7.35038 -9.308644,16.09987 -10.86121,22.59589 0.874371,-7.2966 1.48215,-12.00007 8.68124,-22.38442 z"
       id="path98-5"
       sodipodi:nodetypes="sscscsscsssssccscs" /></g></svg>
