<?xml version="1.0" encoding="UTF-8" standalone="no"?>
<!-- Created with Inkscape (http://www.inkscape.org/) -->

<svg
   width="162.90022mm"
   height="132.61711mm"
   viewBox="0 0 162.90022 132.61711"
   version="1.1"
   id="svg1"
   xml:space="preserve"
   inkscape:version="1.4 (86a8ad7, 2024-10-11)"
   sodipodi:docname="Write-it-down-full.svg"
   xmlns:inkscape="http://www.inkscape.org/namespaces/inkscape"
   xmlns:sodipodi="http://sodipodi.sourceforge.net/DTD/sodipodi-0.dtd"
   xmlns="http://www.w3.org/2000/svg"
   xmlns:svg="http://www.w3.org/2000/svg"><sodipodi:namedview
     id="namedview1"
     pagecolor="#ffffff"
     bordercolor="#000000"
     borderopacity="0.25"
     inkscape:showpageshadow="2"
     inkscape:pageopacity="0.0"
     inkscape:pagecheckerboard="0"
     inkscape:deskcolor="#d1d1d1"
     inkscape:document-units="mm"
     inkscape:zoom="0.70710678"
     inkscape:cx="172.53405"
     inkscape:cy="228.39549"
     inkscape:window-width="1920"
     inkscape:window-height="1009"
     inkscape:window-x="1912"
     inkscape:window-y="-8"
     inkscape:window-maximized="1"
     inkscape:current-layer="layer1" /><defs
     id="defs1" /><g
     inkscape:label="Layer 1"
     inkscape:groupmode="layer"
     id="layer1"
     transform="translate(-29.640623,-43.749701)"><path
       id="path104"
       style="fill:#000000;stroke-width:0.369641"
       d="m 76.940523,87.222065 c -1.113097,-0.10579 -2.893098,1.91163 -3.360518,3.96513 -0.35082,1.54124 -0.07701,2.152046 1.445906,3.223576 0.44642,0.31411 0.81132,0.603355 0.81132,0.642855 -4.358074,4.775428 -7.502349,6.416664 -13.239536,9.265184 -0.175342,0.60362 -1.050725,1.40219 -1.158535,1.84688 h -5.17e-4 c 0,0.15476 -0.02431,0.16261 1.3224,-0.42634 8.525577,-4.07491 10.861062,-5.837892 13.803276,-9.09409 0.51541,-0.570412 0.570796,-0.664813 0.712455,-0.788948 0.195957,0.154135 0.710191,0.775901 1.013021,1.210111 0.521525,0.747798 1.477351,-1.206559 1.317608,-2.088539 -0.0732,-0.4042 -0.597867,-0.815536 -1.0542,-1.356507 -0.300699,-0.35647 -0.298946,-0.727829 -0.07531,-2.009919 0.18458,-1.05438 0.183353,-2.372197 -0.0021,-3.018937 -0.253855,-0.885456 -0.518258,-1.278 -1.535307,-1.370459 z m -0.244429,2.568319 c 0.344012,0.247564 0.397554,0.718532 0.460954,1.845882 0.0285,0.50639 0.01499,0.917774 0.01499,0.917774 0,0 -0.373765,-0.195945 -0.784965,-0.432015 -1.24679,-0.71579 -1.521218,-1.10988 -1.153418,-1.65778 0.288484,-0.429777 1.027362,-0.98696 1.462439,-0.673861 z"
       sodipodi:nodetypes="csssccccscsssccscsscsss"
       inkscape:export-filename="path104.png"
       inkscape:export-xdpi="96"
       inkscape:export-ydpi="96" /><path
       id="path94"
       style="fill:#000000;stroke-width:0.369641"
       d="m 160.32422,73.5391 c -0.15302,0.02541 -0.2945,0.153535 -0.40308,0.390674 -0.36478,0.79668 -1.56745,4.908554 -1.57045,5.365564 -0.002,0.3665 0.23376,1.721573 0.56431,3.244763 0.27948,1.28792 0.83206,4.656834 1.10846,6.758244 0.75493,5.73955 1.10324,10.0366 1.30328,16.075505 0.19601,5.91744 0.3518,8.51774 0.67748,11.31456 0.68314,5.86656 2.02744,9.40179 4.47879,11.77706 1.53723,1.48951 3.27719,2.27774 5.70353,2.58485 1.01886,0.12896 4.28927,0.0452 5.41931,-0.13901 4.53341,-0.73907 8.81423,-2.9377 11.49077,-5.90093 0.96127,-1.06422 1.50449,-1.89714 2.10892,-3.23443 0.95209,-2.10646 1.25201,-3.47821 1.32291,-6.05027 0.0579,-2.1 -0.081,-3.45564 -0.5457,-5.32268 -0.30367,-1.21999 -1.024,-3.17381 -1.69499,-4.59868 -1.57447,-3.34347 -4.31621,-6.097785 -6.62905,-6.659548 -0.94021,-0.22836 -2.66615,-0.153076 -3.42305,0.149343 -1.12096,0.44788 -2.49358,1.641445 -3.39979,2.955895 -0.70639,1.02461 -1.5376,2.93225 -1.81643,4.16874 -0.36333,1.61115 -0.42077,3.3033 -0.15192,4.47932 0.29019,1.26943 0.66698,2.01149 1.35702,2.67322 0.6487,0.6221 1.48052,1.0721 2.45773,1.32911 0.5772,0.15149 1.06831,0.17107 3.79202,0.14677 3.57055,-0.0318 4.15444,0.0396 5.37021,0.6568 0.87358,0.44347 1.8426,1.3502 2.06861,1.93529 0.2355,0.60965 0.13376,0.97903 -0.40876,1.48001 -1.14133,1.05395 -3.99843,2.67401 -6.19859,3.51451 -3.23302,1.23508 -7.47891,1.84208 -9.86606,1.41077 -2.09041,-0.3777 -3.592,-1.11836 -4.77491,-2.35541 -2.0678,-2.16246 -2.64815,-3.97494 -3.25561,-10.16786 -0.21684,-2.21073 -0.28773,-3.46171 -0.67128,-11.820985 -0.17723,-3.862722 -0.35178,-6.244787 -0.67748,-9.257317 -0.32357,-2.99277 -1.24494,-9.619423 -1.53789,-11.059273 -0.2981,-1.46516 -1.13262,-4.456028 -1.43402,-5.139738 -0.22203,-0.503669 -0.50926,-0.747225 -0.76429,-0.704867 z m 20.54758,31.44666 c 0.0911,8.3e-4 0.18722,0.005 0.28887,0.0119 0.90675,0.0618 1.67154,0.46618 2.58641,1.36633 0.60129,0.59164 1.79679,2.14205 1.79679,2.3306 h -5.2e-4 c 0,0.0349 -0.0322,0.0565 -0.0718,0.0465 -0.0396,-0.01 -1.02316,-0.0493 -2.18591,-0.0884 -2.81521,-0.0947 -3.64321,-0.28701 -4.20388,-0.9772 -0.52118,-0.64157 -0.38681,-1.50999 0.33538,-2.16679 0.41708,-0.37937 0.81665,-0.52873 1.45469,-0.52297 z" /><path
       style="fill:#000000;stroke-width:0.369641"
       d="m 59.663791,73.862429 c -0.44923,-0.21303 -1.04382,-0.46293 -1.3213,-0.55535 -0.27747,-0.0924 -0.50449,-0.21988 -0.50449,-0.28326 0,-0.49765 3.08429,-4.94776 5.14107,-7.41768 5.53363,-6.64521 12.0905,-11.86465 19.69942,-15.68127 6.39524,-3.20784 13.12819,-5.162553 20.420129,-5.928363 2.90612,-0.3052 9.10841,-0.3326 11.96379,-0.0528 6.91064,0.67708 13.13404,2.406673 19.65138,5.461483 7.8602,3.68422 15.81884,10.0082 21.16993,16.82174 0.45968,0.5853 0.83577,1.10369 0.83577,1.15197 0,0.0483 -0.68028,0.36795 -1.51174,0.71038 l -1.51173,0.6226 -0.19395,-0.24325 c -0.73927,-0.9272 -2.66071,-3.04438 -3.90512,-4.30297 -8.15108,-8.2439 -18.54592,-13.80332 -29.77752,-15.92579 -3.84131,-0.72591 -6.2829,-0.94419 -10.55437,-0.94358 -4.02668,5.6e-4 -6.69999,0.23613 -10.293349,0.90701 -6.06721,1.13273 -10.87721,2.80067 -16.34127,5.66654 -5.60317,2.93885 -10.61775,6.75918 -15.04624,11.4629 -2.4664,2.61968 -4.24583,4.82933 -6.04523,7.50679 -0.51048,0.75958 -0.95744,1.38762 -0.99325,1.39565 -0.0358,0.008 -0.43268,-0.15969 -0.88193,-0.37272 z"
       id="path118" /><path
       style="fill:#000000;stroke-width:0.369641"
       d="m 169.73144,88.076467 c 0.40414,-1.03022 0.86012,-1.90414 1.15051,-2.20505 0.42197,-0.43727 1.55277,-0.99675 6.56545,-3.24841 1.95791,-0.87948 7.17481,-3.07339 10.4124,-4.37882 0.57161,-0.23048 1.06579,-0.39161 1.09819,-0.35806 0.0673,0.0696 -0.58709,1.79348 -0.852,2.24471 -0.33165,0.56486 -0.53611,0.66787 -6.13827,3.09239 -1.29487,0.56041 -3.71646,1.64549 -5.3813,2.41131 -2.94799,1.35605 -6.8558,3.06028 -7.01726,3.06028 -0.0442,0 0.0289,-0.27826 0.16228,-0.61835 z"
       id="path116" /><path
       id="path115"
       style="fill:#000000;stroke-width:0.369641"
       d="m 46.019319,67.537291 c -0.960422,0.0037 -1.389076,0.650129 -1.458826,2.164726 -0.03529,0.76601 -0.108139,1.125347 -0.383439,1.891357 -0.42949,1.19504 -0.481878,2.197298 -0.148828,2.846338 0.25644,0.49973 0.491406,0.665342 1.338936,0.943612 0.36252,0.11903 0.695407,0.250905 0.740007,0.293005 0.21199,0.19989 -2.449134,2.226284 -5.750554,4.378544 -1.33509,0.87037 -1.681551,1.150444 -1.681551,1.360124 0,0.20637 0.457261,0.160381 1.699121,-0.171049 1.24804,-0.33307 2.651548,-0.978996 3.780648,-1.739946 0.85532,-0.57644 2.321972,-2.058001 2.834452,-2.863391 0.22036,-0.34632 0.417077,-0.556583 0.492477,-0.526583 0.38507,0.15306 2.251154,0.456303 2.808614,0.456303 0.68156,0 0.878053,-0.111763 1.144633,-0.649573 0.2205,-0.44485 0.417096,-1.513063 0.419096,-2.278413 0.004,-1.47066 -0.516687,-2.589259 -1.819527,-3.909839 -1.31354,-1.33142 -2.646615,-2.095664 -3.816305,-2.187464 -0.06881,-0.0054 -0.134926,-0.008 -0.198954,-0.0078 z m 0.177767,3.362069 c 0.217208,-0.005 0.439784,0.08206 0.652156,0.267167 0.52293,0.45575 0.824502,1.477593 0.608232,2.061373 -0.065,0.17543 -0.357223,0.186248 -1.178223,0.04496 -0.68462,-0.11782 -1.114939,-0.339585 -1.249019,-0.644405 -0.09017,-0.20505 -0.07312,-0.337911 0.0956,-0.744141 0.262271,-0.631496 0.656582,-0.975433 1.071253,-0.984952 z m 2.345076,0.49506 c 0.19941,0 0.853861,0.488352 1.291911,0.964282 0.58606,0.63674 0.948779,1.272884 0.948779,1.663464 0,0.13581 -0.03223,0.264905 -0.07183,0.286805 -0.03964,0.0219 -0.331946,-0.04534 -0.649056,-0.149345 -0.31711,-0.10401 -0.835801,-0.244959 -1.152901,-0.313159 -0.57449,-0.12357 -0.57664,-0.124899 -0.56224,-0.466639 0.02824,-0.66913 0.157737,-1.985408 0.195337,-1.985408 z" /><path
       style="fill:#000000;stroke-width:0.369641"
       d="m 64.180798,90.13208 c -0.14183,-0.12294 -0.31209,-0.61751 -0.59061,-1.71556 -0.45677,-1.80079 -1.36009,-4.64658 -1.87705,-5.91342 -0.46659,-1.14339 -1.07313,-2.08849 -1.36814,-2.13181 -0.129,-0.0189 -0.35705,0.0746 -0.54614,0.22396 -0.17854,0.14106 -0.38279,0.25648 -0.45387,0.25648 -0.205,0 -1.42877,-0.64206 -1.88217,-0.98749 -0.22716,-0.17307 -0.54389,-0.52559 -0.70384,-0.78338 -0.24697,-0.39807 -0.28448,-0.54143 -0.24882,-0.95122 0.0556,-0.63905 1.0053,-2.63002 1.43184,-3.00178 0.27434,-0.23912 0.37066,-0.26474 0.8581,-0.22822 1.05086,0.0787 2.36071,0.98123 3.19798,2.20341 0.86066,1.25633 1.90935,3.85435 2.64898,6.56257 0.17598,0.64434 0.33807,1.15278 0.3602,1.12985 0.0221,-0.0229 0.18356,-0.72929 0.35873,-1.56969 1.28626,-6.1713 2.45841,-9.0876 3.93978,-9.80211 0.65787,-0.31731 1.30287,-0.31337 1.83759,0.0112 0.8442,0.51246 1.53612,1.90075 1.46417,2.93779 -0.0371,0.53517 -0.51541,1.70458 -0.92918,2.27187 l -0.16882,0.23148 -0.35391,-0.59392 c -0.88426,-1.48391 -2.02237,-1.82227 -2.61052,-0.77609 -0.3958,0.70406 -0.99508,2.93949 -1.92424,7.17788 -0.31167,1.4217 -0.70112,2.72348 -1.22091,4.08101 -0.51359,1.3413 -0.83421,1.70086 -1.21915,1.36718 z"
       id="path112" /><path
       style="fill:#000000;stroke-width:0.369641"
       d="m 66.486531,94.647969 c 0,-0.87901 1.48423,-5.77142 2.49804,-8.23417 0.8439,-2.05 2.45156,-5.2861 3.43669,-6.9178 4.36381,-7.22791 10.33525,-13.16261 17.09862,-16.99344 5.25722,-2.97773 11.053369,-4.78223 17.207799,-5.35727 1.97529,-0.18456 6.77112,-0.0756 8.76716,0.19915 5.56461,0.76603 11.19654,2.69799 15.75954,5.40613 4.10624,2.43705 8.20253,5.84889 10.91822,9.09391 0.6015,0.71874 1.09363,1.33548 1.09363,1.37054 0,0.10551 -2.33856,1.25271 -2.55542,1.25357 -0.13173,5.3e-4 -0.49427,-0.32941 -1.05117,-0.95665 -2.85268,-3.21289 -6.90234,-6.35461 -10.95178,-8.49634 -7.64587,-4.04387 -16.57119,-5.48195 -25.04509,-4.03537 -4.993309,0.85241 -9.099679,2.31854 -13.429159,4.79474 -7.74811,4.43144 -14.20378,11.56278 -18.17826,20.08086 -0.77141,1.65327 -2.01826,4.96204 -2.44598,6.49086 -0.13368,0.47783 -0.29003,0.92742 -0.34744,0.99908 -0.0875,0.10917 -2.6316,1.52866 -2.7398,1.52866 -0.0196,0 -0.0356,-0.10191 -0.0356,-0.22646 z"
       id="path111" /><path
       style="fill:#000000;stroke-width:0.369641"
       d="m 144.21483,94.085477 c -0.94165,-0.20699 -1.97236,-0.74358 -2.52062,-1.31225 -0.56156,-0.58245 -1.22091,-1.55809 -1.14218,-1.69006 0.0354,-0.0594 0.33217,-0.009 0.76373,0.12845 1.67678,0.53588 2.78365,0.69937 4.67683,0.69079 1.71204,-0.008 1.85945,-0.0249 3.98793,-0.46533 1.2156,-0.25151 2.81557,-0.55507 3.5555,-0.67457 0.73993,-0.11951 1.38217,-0.25286 1.42721,-0.29633 0.0451,-0.0435 -0.10053,-0.2624 -0.32348,-0.48651 -0.75604,-0.75999 -1.81107,-0.87242 -4.6125,-0.49152 -2.01416,0.27386 -3.99228,0.29458 -4.60987,0.0483 -0.97976,-0.39071 -1.1563,-0.89552 -0.7343,-2.09977 0.30902,-0.88185 0.73798,-1.59541 1.61629,-2.6887 1.11506,-1.38799 2.46023,-2.50586 3.82529,-3.17892 0.52943,-0.26104 0.73699,-0.30805 1.36196,-0.3085 0.84062,-6e-4 1.21153,0.1927 1.34885,0.70297 0.11817,0.43908 -0.33275,2.23284 -0.5613,2.23284 -0.0306,0 -0.18216,-0.1102 -0.33668,-0.24488 -0.79559,-0.69342 -2.41588,-0.25637 -4.18724,1.12947 -0.80264,0.62795 -1.85255,1.74936 -1.85333,1.97955 -0.002,0.42319 2.19439,0.53496 4.53644,0.23091 2.42765,-0.31516 3.40382,-0.26893 4.50302,0.21323 0.8541,0.37465 1.37313,1.23125 1.35369,2.23415 -0.0116,0.59689 -0.37542,1.95556 -0.62742,2.34291 -0.29323,0.45072 -0.65153,0.63432 -1.89443,0.9708 -3.78929,1.02584 -7.6747,1.44595 -9.55339,1.03298 z"
       id="path110" /><path
       style="fill:#000000;stroke-width:0.369641"
       d="m 179.23295,97.2301 c -0.30639,-0.19111 -1.1687,-0.7887 -1.91624,-1.328 -0.74755,-0.53929 -1.82422,-1.30229 -2.39259,-1.69554 l -1.03342,-0.71501 0.25196,-0.52006 c 0.25873,-0.53406 1.7852,-3.37805 2.4563,-4.57639 l 0.37637,-0.67207 0.30791,0.16259 c 0.40924,0.2161 3.12056,2.156 4.41595,3.15953 0.61621,0.47737 1.03302,0.86962 1.03302,0.97215 0,0.29313 -2.71926,5.56026 -2.87059,5.56026 -0.0394,0 -0.32228,-0.15636 -0.62867,-0.34746 z"
       id="path109" /><path
       id="path122"
       style="display:inline;fill:#000000;stroke-width:0.369641"
       d="m 169.49405,65.423397 c -0.40585,0.01347 -0.90493,0.07456 -1.67535,0.189136 -3.19713,0.4755 -7.04929,1.735419 -13.52889,4.424019 -11.27196,4.6771 -18.11303,8.002034 -21.31085,10.358024 -1.54869,1.14099 -2.92148,2.760628 -3.38584,3.994588 -0.77218,2.05185 -1.42444,7.607054 -0.99425,8.468734 0.0863,0.17292 0.52412,0.634627 0.97255,1.025777 0.55431,0.4835 1.19966,1.214718 2.0159,2.284098 1.80877,2.36973 3.39749,3.927977 6.34586,6.224427 1.32526,1.03225 5.31132,3.79112 8.41344,5.8229 2.37445,1.55519 5.10282,3.48419 6.10816,4.31912 1.13418,0.94192 2.08391,2.03748 2.48305,2.8639 0.1871,0.38736 0.34003,0.80694 0.34003,0.93225 0,0.33983 -0.36786,0.73282 -1.5136,1.61644 -2.49934,1.92755 -5.31018,3.37696 -8.89248,4.58576 -2.6638,0.89887 -4.80394,1.3069 -6.85333,1.3069 -2.3089,0 -3.53576,-0.3935 -4.70566,-1.5105 -0.85684,-0.8181 -1.11983,-1.7967 -1.07693,-4.00803 0.0286,-1.47608 -0.0331,-1.75011 -0.39274,-1.74511 -0.086,0.001 -0.74016,0.47861 -1.45366,1.06092 -2.7518,2.24587 -5.86884,4.0967 -9.02374,5.35833 -2.33266,0.93284 -5.64232,1.87059 -7.69669,2.18074 -2.62697,0.39659 -6.76989,0.4916 -8.89506,0.20412 -5.752205,-0.77813 -9.874947,-3.39545 -11.820987,-7.50445 -0.98519,-2.0802 -1.575668,-5.85189 -1.309998,-8.369 0.14201,-1.34548 -0.09278,-1.41657 -1.432471,-0.43356 -3.35976,2.46526 -5.678298,3.87761 -8.156608,4.9692 -1.15666,0.50946 -3.359662,1.33687 -3.559472,1.33687 -0.04175,0 -0.407984,-0.66062 -0.813904,-1.46812 -1.36873,-2.72278 -3.22791,-5.22205 -4.7594,-6.39806 -2.7226,-2.09064 -5.533065,-1.76987 -8.056355,0.92035 -0.92612,0.98738 -1.408705,1.7172 -2.124935,3.21325 -1.25382,2.61897 -1.605919,5.01881 -1.105359,7.5339 0.3816,1.91734 1.502462,3.24696 3.431832,4.07107 1.17433,0.50159 2.085063,0.63104 4.447273,0.63304 2.36223,0.002 3.034186,-0.0904 5.018816,-0.68782 0.64363,-0.19375 1.193664,-0.35243 1.222664,-0.35243 0.0289,0 0.05271,0.37509 0.05271,0.83354 0,1.39217 -0.182503,1.74046 -2.045353,3.90519 -2.78093,3.23161 -6.394627,6.41329 -10.494967,9.23975 -3.4157,2.35451 -5.310574,3.2821 -8.312154,4.06952 -1.728209,0.45348 -4.376804,0.49316 -5.691126,0.006 -2.99632,-1.11065 -4.573675,-3.14044 -5.124235,-6.5934 -0.25513,-1.6001 -0.155474,-4.2807 0.228927,-6.15363 0.300808,-1.46564 0.961395,-3.61498 1.137398,-4.21938 -0.572951,0.21587 -1.298024,-0.0504 -1.912544,0.38934 -0.301161,1.07558 -1.864774,7.829 -1.964738,10.4593 -0.269085,7.08031 2.671546,12.09944 7.757666,13.24054 1.23389,0.27683 3.967455,0.23103 5.424475,-0.0909 5.00715,-1.10662 10.669696,-4.82699 16.436206,-10.79831 3.135,-3.24635 5.033441,-5.87555 6.164481,-8.53695 0.89396,-2.10357 1.333474,-3.71213 1.570964,-5.75055 0.0606,-0.52008 0.138516,-1.00432 0.173116,-1.07642 0.03466,-0.0721 0.673985,-0.39019 1.420585,-0.70693 2.77396,-1.17682 5.489018,-2.93928 7.575248,-4.91701 0.44377,-0.42069 0.831663,-0.76482 0.861963,-0.76482 0.0303,0 0.05529,0.28149 0.05529,0.62529 0,0.34378 0.06446,1.16654 0.14366,1.82883 0.53039,4.43765 1.784367,7.32368 4.319117,9.94099 2.42331,2.50225 5.272408,3.76248 9.927045,4.39095 1.4962,0.20199 5.26744,0.22796 6.75101,0.0465 4.72715,-0.57812 8.12623,-1.6247 12.27522,-3.77962 2.29951,-1.19433 4.83504,-2.83263 6.41511,-4.14496 l 0.67283,-0.55862 0.15038,0.67747 c 0.4203,1.88934 0.99574,3.0523 2.09703,4.2385 0.89695,0.96613 1.43523,1.33064 2.50889,1.69861 3.45475,1.18403 9.0095,0.0693 14.59601,-2.92851 2.50258,-1.34295 4.05963,-2.4918 5.53609,-4.08502 1.6565,-1.78751 2.57815,-3.61291 3.0608,-6.06216 0.22684,-1.15067 0.29165,-2.53277 0.16588,-3.53467 -0.41661,-3.319 -1.5991,-5.54709 -4.07779,-7.68428 -1.36886,-1.18026 -4.75399,-3.46509 -9.91154,-6.690034 -2.9027,-1.815 -4.58233,-2.983632 -6.05389,-4.211112 -1.23129,-1.02707 -2.16214,-1.956618 -2.16214,-2.159558 0,-0.066 0.39995,-0.10387 1.09812,-0.10387 0.87026,0 1.12936,-0.03263 1.24902,-0.156579 0.46932,-0.48614 -0.15606,-1.010061 -4.02869,-3.372921 -2.70955,-1.65322 -3.02721,-1.877702 -3.02721,-2.143022 0,-0.36806 2.81424,-2.104238 6.53448,-4.031278 8.47001,-4.38735 24.60034,-10.991911 28.9109,-11.837521 1.12218,-0.22018 2.8401,-0.211576 3.28094,0.01654 0.47996,0.24835 0.697,0.732664 0.6351,1.417484 -0.0504,0.55724 -0.22569,0.954944 -1.96887,4.466394 -1.10673,2.22939 -1.62223,4.201941 -1.2361,4.732011 0.17537,0.24075 0.3104,0.15226 0.56534,-0.37052 0.11164,-0.22895 1.03615,-1.852598 2.05465,-3.608048 1.01849,-1.75545 2.04474,-3.591778 2.28049,-4.080888 1.29364,-2.68386 1.58987,-5.404521 0.76842,-7.060551 -0.35438,-0.71441 -0.99514,-1.144192 -1.99057,-1.334802 -0.39625,-0.07586 -0.70881,-0.110099 -1.11466,-0.09664 z M 67.791211,112.50734 c 0.103945,-4.6e-4 0.206395,0.003 0.30179,0.009 0.83721,0.0551 1.646231,0.43264 2.401921,1.12138 0.68961,0.62851 2.237589,2.80148 2.237589,3.14089 0,0.11257 -2.948877,0.10267 -4.132047,-0.014 -2.13002,-0.20982 -3.548599,-1.17335 -3.307809,-2.24638 0.18078,-0.80561 0.99668,-1.73665 1.69292,-1.93166 0.170708,-0.0475 0.493801,-0.0777 0.805636,-0.0791 z"
       sodipodi:nodetypes="sssscssssssssssssccsssssssssssssssssssssccssccsscssscsssscsscscccsssscsssssssssscssssssssssscsscscscc" /><path
       id="path121"
       style="display:inline;fill:#000000;stroke-width:0.369641"
       d="m 57.587522,81.848601 c -0.994885,0.05451 -3.177905,2.148464 -6.538102,6.269901 -1.00936,1.23801 -3.679846,4.233715 -4.614706,5.176945 l -0.562239,0.567408 -0.72037,-0.907955 c -0.97393,-1.22672 -1.379601,-1.884572 -1.224731,-1.986442 0.06576,-0.0433 0.516389,-0.07937 1.001489,-0.0801 0.94507,-0.0016 1.212095,-0.117799 1.118795,-0.487309 -0.06505,-0.25764 -0.344255,-0.520751 -1.808675,-1.703771 -2.09608,-1.69329 -3.981348,-2.946783 -5.087028,-3.382223 -0.28998,-0.11419 -0.259896,-0.209301 -0.540536,1.689819 -0.46317,3.13436 -0.569661,4.507319 -0.378271,4.877739 0.05299,0.10254 0.302018,0.30235 0.552938,0.4439 0.25091,0.14154 0.54609,0.40167 0.65629,0.57826 0.11021,0.17658 0.495205,0.813734 0.855245,1.415934 0.36005,0.6022 0.89912,1.453397 1.19786,1.891357 0.29875,0.43796 0.574382,0.850007 0.612882,0.915707 0.08777,0.14979 -1.479513,1.511353 -3.931543,3.415289 -2.77264,2.15288 -3.583756,2.67192 -4.531506,2.89853 -0.42003,0.10046 -0.527824,0.0912 -0.852144,-0.0734 -0.4651,-0.23603 -0.752371,-0.67764 -1.025261,-1.57613 -0.18048,-0.59434 -0.212806,-0.9252 -0.209806,-2.146116 0.0051,-1.976932 0.212009,-2.928373 1.491899,-6.872966 1.02698,-3.16526 1.112574,-3.495319 0.992704,-3.818889 -0.11234,-0.30323 -0.292885,-0.151174 -0.729155,0.613916 -0.58617,1.02798 -0.830521,1.543124 -1.456241,3.069064 -2.02043,4.927252 -2.698648,9.291871 -1.873788,12.062821 0.56086,1.88408 1.363901,2.65372 2.773991,2.65772 0.6282,0.002 0.808657,-0.0414 1.377177,-0.33124 2.29413,-1.28082 6.361829,-5.45199 8.498189,-7.456906 l 0.771013,-0.72399 0.421163,0.52503 c 0.23156,0.28853 0.618812,0.770676 0.860412,1.071766 l 0.43925,0.54726 -0.943612,1.37407 c -3.20833,4.67122 -5.057337,8.76903 -5.644617,12.51138 -0.27379,1.74478 -0.330203,2.78666 -0.210323,3.88194 0.28672,2.61964 1.229025,4.38079 2.739885,5.12113 2.32221,1.13794 5.222158,0.55075 8.543148,-1.72961 1.223769,-0.96304 2.575131,-1.77113 3.7052,-2.84892 1.24487,-1.3629 1.819099,-2.38181 2.392619,-4.24625 0.43629,-1.41832 0.625036,-2.71896 0.633036,-4.35891 0.0082,-1.72024 -0.144942,-2.78817 -0.590662,-4.12275 -0.72671,-2.17588 -1.821526,-3.96684 -3.947046,-6.45645 l -1.002006,-1.173566 0.852145,-0.91674 c 1.61283,-1.73528 3.45304,-4.138936 4.34237,-5.672006 0.59983,-1.03404 1.484405,-2.864552 1.788005,-3.700032 0.92591,-2.54801 0.918878,-6.54572 -0.01189,-6.7877 -0.05576,-0.0145 -0.117125,-0.02017 -0.183451,-0.01654 z m -2.206067,4.857585 c 0.36626,0 0.319022,0.345986 -0.182418,1.338936 -0.7438,1.47291 -1.61099,2.708633 -3.81062,5.429643 -0.77447,0.95804 -1.727263,2.095 -2.117183,2.52646 l -0.709001,0.784449 -0.655774,-0.719853 -0.655774,-0.720369 0.223759,-0.26355 c 0.123063,-0.144947 0.613083,-0.689139 1.088823,-1.209229 0.47574,-0.52009 1.450312,-1.617441 2.165242,-2.438611 0.71494,-0.82118 1.877788,-2.155977 2.584338,-2.966227 1.29461,-1.48462 1.620178,-1.761649 2.068608,-1.761649 z m -8.191748,16.734894 c 0.01591,-0.001 0.02584,0.006 0.02584,0.0248 0,0.0248 0.04881,0.0116 0.07183,0.0258 0.21597,0.13374 4.348336,5.06226 5.037936,6.00842 0.76605,1.05107 1.17257,1.88532 1.25057,2.56728 0.07578,0.66281 0.04663,0.69653 -1.656747,1.92547 -2.383,1.71927 -4.078511,2.56791 -5.950541,2.97863 -0.8767,0.1924 -2.374942,0.24509 -2.834452,0.0997 -0.76256,-0.24113 -1.519021,-0.87383 -1.732711,-1.44952 -0.19181,-0.51678 -0.130359,-1.61324 0.145211,-2.58796 0.27714,-0.9803 1.38617,-3.28625 2.34766,-4.88135 0.66437,-1.10221 2.803685,-4.27187 3.078365,-4.56097 0.06584,-0.0693 0.169307,-0.14719 0.217041,-0.15037 z" /><path
       style="fill:#000000;stroke-width:0.369641"
       d="m 154.55359,105.00083 c -0.42489,-0.39611 -0.98391,-0.90358 -1.24226,-1.1277 l -0.46973,-0.40752 -0.12288,-1.53345 c -0.16199,-2.021921 -0.28405,-2.910601 -0.57289,-4.171181 -0.23832,-1.04006 -0.23855,-1.04592 -0.0486,-1.20576 0.26702,-0.22471 1.97526,-0.45631 2.16468,-0.29348 0.23025,0.19794 0.71127,2.50284 0.96503,4.624141 0.17614,1.47243 0.30566,4.83858 0.18609,4.83659 -0.0478,-7.3e-4 -0.43452,-0.32554 -0.85942,-0.72164 z"
       id="path103" /><path
       style="fill:#000000;stroke-width:0.369641"
       d="m 113.62682,147.12399 c -0.42727,-0.0695 -0.78709,-0.43261 -1.09448,-1.10459 -0.29489,-0.64461 -0.30013,-0.68231 -0.29893,-2.14918 7.1e-4,-1.07063 0.0511,-1.73243 0.17758,-2.33912 0.42016,-2.01568 1.72024,-5.32294 2.06565,-5.2548 0.28089,0.0554 0.22881,0.45172 -0.26556,2.02034 -1.08427,3.44047 -1.13736,5.11498 -0.18548,5.84986 0.4694,0.36239 0.97427,0.0451 1.49001,-0.93647 0.45047,-0.85728 0.67145,-0.70687 0.57967,0.39456 -0.17676,2.12119 -1.29166,3.71078 -2.46846,3.5194 z"
       id="path100" /><path
       style="fill:#000000;stroke-width:0.369641"
       d="m 55.117071,133.39348 c -1.12968,-0.35123 -1.69593,-1.81164 -1.69744,-4.37794 -0.002,-2.77219 0.49777,-5.08051 1.7802,-8.22815 0.83623,-2.05248 1.20059,-2.65415 1.4937,-2.46651 0.15861,0.10155 0.091,1.03452 -0.11694,1.61442 -1.05946,2.95414 -1.52015,4.8427 -1.59695,6.54656 -0.091,2.01806 0.48172,3.23044 1.52593,3.23044 0.3955,0 1.06557,-0.69115 1.46631,-1.51247 0.27411,-0.5618 0.46258,-0.73787 0.65676,-0.61356 0.18557,0.11879 0.0185,1.89937 -0.2649,2.82279 -0.7404,2.41273 -1.83858,3.42221 -3.24667,2.98442 z"
       id="path93" /><path
       style="fill:#000000;stroke-width:0.369641"
       d="m 156.10804,139.38744 c -0.97977,-0.43959 -1.46732,-1.53417 -1.59712,-3.58564 -0.16131,-2.54971 0.42718,-5.45384 1.78271,-8.7973 0.8395,-2.07068 1.22648,-2.6383 1.51756,-2.22597 0.23403,0.33153 0.16009,0.66504 -0.59282,2.67388 -0.52102,1.39015 -0.95303,3.16441 -1.11666,4.58603 -0.18169,1.5787 0.10734,2.87917 0.76783,3.45485 0.61574,0.53667 1.2728,0.2824 1.90937,-0.73891 0.61924,-0.99347 0.73477,-1.12359 0.92906,-1.04636 0.15429,0.0613 0.16514,0.15333 0.10388,0.88086 -0.0799,0.94965 -0.43131,2.29203 -0.80078,3.0597 -0.32255,0.67018 -1.11513,1.58392 -1.52942,1.76322 -0.40331,0.17455 -0.95195,0.16482 -1.37361,-0.0243 z"
       id="path92" /><path
       style="fill:#000000;stroke-width:0.312156"
       d="m 87.885546,137.39617 c -1.698269,-1.17068 -3.582696,-2.58935 -3.640096,-2.74041 -0.02395,-0.063 0.02198,-0.26228 0.102021,-0.44285 0.250955,-0.56599 2.476538,-4.26996 2.592723,-4.31499 0.152629,-0.0592 0.361392,0.0631 1.35146,0.7912 0.471983,0.34711 1.489087,1.06533 2.260231,1.59602 0.947867,0.65233 1.410365,1.02026 1.427642,1.13574 0.05525,0.36921 -2.419301,4.9155 -2.673181,4.91121 -0.03558,-6.1e-4 -0.674922,-0.42177 -1.4208,-0.93592 z"
       id="path89" /><path
       style="fill:#000000;stroke-width:0.369641"
       d="m 142.36629,148.51753 c -0.18365,-0.14963 -0.2532,-0.29803 -0.2532,-0.54023 0,-0.3577 0.35035,-0.74653 0.67266,-0.74653 0.32231,0 0.67266,0.38883 0.67266,0.74653 0,0.3577 -0.35035,0.74652 -0.67266,0.74652 -0.0915,0 -0.28021,-0.0928 -0.41946,-0.20629 z"
       id="path84" /><path
       style="fill:#000000;stroke-width:0.369641"
       d="m 85.849611,153.46327 c -1.88804,-1.25163 -1.79206,-1.17042 -1.64793,-1.39437 0.0742,-0.11532 0.23085,-0.21077 0.34807,-0.21212 0.14645,-0.002 0.25254,-0.0995 0.33907,-0.31269 0.0878,-0.21635 0.23056,-0.346 0.47163,-0.42842 0.43474,-0.14861 0.78021,-0.0711 1.3492,0.30265 l 0.44834,0.29451 -0.20072,0.29198 -0.20072,0.29198 -0.32946,-0.20135 c -0.41472,-0.25346 -0.75879,-0.21601 -0.80035,0.0871 -0.0242,0.17629 0.0727,0.29034 0.45645,0.53745 0.26792,0.1725 0.48714,0.33094 0.48714,0.35205 0,0.0211 -0.0699,0.1488 -0.1552,0.28374 -0.17297,0.27345 -0.28349,0.29444 -0.56552,0.10748 z"
       id="path83" /><path
       style="fill:#000000;stroke-width:0.369641"
       d="m 107.23069,155.69004 c -3.79205,-0.29996 -7.877829,-1.12172 -11.070449,-2.22657 -6.46122,-2.236 -12.47239,-6.05073 -17.5047,-11.10859 -1.6576,-1.66601 -4.18883,-4.66125 -4.69814,-5.55934 l -0.16866,-0.2974 0.8294,-1.00404 c 0.45617,-0.55222 0.86475,-1.00403 0.90796,-1.00403 0.0829,0 0.10814,0.0312 1.61082,1.99072 0.52477,0.68433 1.47707,1.80979 2.11622,2.50105 5.72285,6.18938 12.69214,10.39781 20.65931,12.47518 3.563529,0.92915 6.357889,1.28159 10.201089,1.28661 3.32657,0.004 6.01759,-0.28487 8.83731,-0.94972 5.63205,-1.328 10.71576,-3.63866 15.37712,-6.98923 5.00844,-3.60005 9.20948,-8.16184 12.49244,-13.56517 l 0.91158,-1.50035 1.74439,-0.95904 c 0.95941,-0.52745 1.77043,-0.95901 1.80227,-0.95901 0.092,0 -0.35693,1.1668 -0.80429,2.09026 -3.75759,7.75682 -10.15312,14.72206 -17.85334,19.44373 -1.44654,0.88701 -4.58775,2.50485 -6.07528,3.12902 -3.78141,1.58667 -8.1742,2.69697 -12.30013,3.10894 -1.42227,0.14201 -5.69832,0.20112 -7.01492,0.097 z"
       id="path82" /><path
       style="fill:#000000;stroke-width:0.369641"
       d="m 127.5805,156.02887 c -0.0974,-0.22144 -0.0884,-0.27935 0.0612,-0.39267 0.16876,-0.12781 0.16769,-0.14321 -0.0278,-0.40067 -0.2737,-0.36041 -0.25654,-0.75732 0.049,-1.13346 0.25556,-0.31459 0.87553,-0.70002 1.12601,-0.70002 0.12494,0 0.25071,0.27856 0.25396,0.56251 7e-4,0.0631 -0.153,0.2089 -0.34161,0.32416 -0.25702,0.15707 -0.33527,0.26553 -0.31232,0.43287 0.042,0.30584 0.35739,0.33294 0.84937,0.073 0.22058,-0.11657 0.41264,-0.19763 0.42678,-0.18012 0.0806,0.0998 0.24395,0.48211 0.24395,0.57106 0,0.0574 -0.20548,0.21226 -0.45663,0.34408 -0.41649,0.21861 -1.64406,0.75905 -1.72413,0.75905 -0.0184,0 -0.085,-0.11689 -0.14779,-0.25974 z"
       id="path81" /><path
       id="path80"
       style="fill:#000000;stroke-width:0.369641"
       d="m 151.04608,142.8626 c -0.8478,-0.004 -1.65362,0.59622 -2.10168,1.5813 -0.20809,0.45749 -0.24898,0.68618 -0.24598,1.39319 l 0.003,0.84646 -0.45114,-0.49557 -0.45113,-0.49506 -0.38861,0.44545 c -0.21379,0.24502 -0.38974,0.46916 -0.39274,0.49816 -0.002,0.0289 0.53669,0.64389 1.19734,1.36684 0.66065,0.72294 1.20096,1.35475 1.20096,1.40405 0,0.21619 -1.93272,1.90427 -2.18023,1.90427 -0.0437,0 -0.0641,-0.19781 -0.0455,-0.43976 0.0808,-1.05235 -0.56938,-2.23482 -1.34824,-2.45205 -1.2058,-0.33632 -2.7942,1.02545 -3.39979,2.91404 -0.14879,0.4638 -0.14818,0.51732 0.0109,0.88263 l 0.1695,0.38912 1.21078,0.007 c 1.65429,0.01 1.66396,0.0162 1.06918,0.70745 -0.48469,0.56329 -2.18278,1.973 -2.3766,1.973 -0.0908,0 -0.90089,-1.2254 -1.71049,-2.58795 -0.14639,-0.24637 -0.27637,-0.46118 -0.28887,-0.47698 -0.0461,-0.058 -1.0082,0.60929 -1.0082,0.69919 0,0.0511 0.41194,0.78553 0.9157,1.63194 0.50376,0.84643 0.89145,1.57967 0.86145,1.62987 -0.0556,0.0931 -1.6987,1.16907 -1.91926,1.25677 -0.0773,0.0307 -0.42945,-0.52471 -0.96687,-1.52497 -0.46494,-0.86535 -0.85978,-1.59304 -0.87798,-1.61644 -0.0517,-0.0666 -1.18443,0.5171 -1.18443,0.6103 0,0.0456 0.52619,0.9894 1.16892,2.09703 0.64273,1.10763 1.24707,2.19275 1.34307,2.41174 0.34975,0.79744 0.16214,1.43536 -0.53536,1.81901 l -0.31265,0.17208 0.18087,0.42272 h -5.2e-4 c 0.2075,0.48549 0.37745,0.5265 0.99116,0.23771 1.08687,-0.51144 1.47132,-1.80008 0.92811,-3.11092 l -0.19017,-0.45992 0.39946,-0.22996 c 0.55743,-0.3209 2.82773,-1.8943 3.82457,-2.65049 0.91155,-0.69148 1.76895,-1.59502 2.24792,-2.36936 0.27786,-0.44921 0.36101,-0.51209 0.82063,-0.62374 0.28131,-0.0683 0.74382,-0.27 1.02784,-0.44803 0.67696,-0.42431 4.91665,-4.85227 5.2033,-5.43429 0.50857,-1.03259 0.31852,-2.10751 -0.52296,-2.95848 -0.58705,-0.59369 -1.0735,-0.85561 -1.70533,-0.91881 -0.0568,-0.006 -0.11349,-0.009 -0.17001,-0.009 z m -0.0801,1.33687 c 0.32065,0.0107 0.64826,0.17235 0.91674,0.46612 0.65983,0.72199 0.69967,1.31033 0.13849,2.03347 -0.20562,0.26495 -0.65438,0.76643 -0.99735,1.11414 l -0.62322,0.632 -0.24598,-0.53743 c -0.73719,-1.6141 -0.56744,-3.2157 0.38447,-3.62769 0.13688,-0.0592 0.2811,-0.0855 0.42685,-0.0806 z m -5.8074,5.44721 c 0.27887,-2.3e-4 0.59458,0.22755 0.70642,0.53227 0.0505,0.13756 0.092,0.47088 0.092,0.74104 v 0.49144 h -1.20716 -1.20716 l 0.26407,-0.50333 c 0.30112,-0.57307 0.87667,-1.15365 1.23558,-1.24695 0.0376,-0.01 0.0764,-0.0144 0.11627,-0.0145 z m -1.16375,7.44347 c -0.17307,8.1e-4 -0.34349,0.0534 -0.45682,0.15968 -0.22218,0.20826 -0.23147,0.80045 -0.0165,1.04645 0.20106,0.23014 0.77278,0.2402 1.01028,0.0176 0.23772,-0.22287 0.22936,-0.77574 -0.016,-1.02991 -0.12484,-0.12929 -0.32476,-0.19471 -0.5209,-0.19379 z" /><path
       id="path79"
       style="fill:#000000;stroke-width:0.369641"
       d="m 71.964083,146.09341 c -1.81405,0 -3.109012,2.01307 -2.318722,3.60443 0.36344,0.73184 2.255805,2.737 3.814755,4.04265 0.26788,0.22435 0.916335,0.78222 1.441255,1.2392 0.93022,0.80982 2.575794,2.08239 3.933094,3.04167 l 0.672827,0.47543 0.320394,-0.38241 c 0.4653,-0.55585 1.113813,-1.60877 1.304313,-2.11718 0.20591,-0.54954 0.214156,-1.55491 0.01654,-2.04484 -0.22736,-0.56362 -0.686639,-1.10728 -1.338419,-1.5844 -0.99284,-0.72678 -0.968671,-0.72248 -1.255221,-0.21601 -0.13678,0.24177 -0.248564,0.46145 -0.248564,0.48835 0,0.0268 0.161995,0.15235 0.360185,0.27905 0.50976,0.32587 1.069639,0.86805 1.231449,1.19217 0.22535,0.45139 0.171212,1.08108 -0.150378,1.7477 -0.49924,1.03485 -0.500632,1.03501 -1.529622,0.2806 -1.02204,-0.7493 -2.589149,-2.02938 -2.782259,-2.27273 -0.11154,-0.14062 -0.111757,-0.19315 -5.17e-4,-0.34054 0.0723,-0.0958 0.888473,-1.11482 1.813843,-2.26447 0.92538,-1.14965 1.746594,-2.17441 1.824694,-2.27738 0.13054,-0.17223 0.107707,-0.21874 -0.280603,-0.57567 -0.23217,-0.21342 -0.469082,-0.37205 -0.526582,-0.35295 -0.05752,0.0192 -0.969193,1.07361 -2.026233,2.34301 -1.05704,1.26939 -1.954277,2.31896 -1.993677,2.33216 -0.07891,0.0265 -1.51412,-1.23332 -1.51412,-1.32912 0,-0.0328 0.517471,-0.65989 1.149801,-1.39372 0.63232,-0.73383 1.150384,-1.40153 1.152384,-1.48363 0.0037,-0.21013 -0.855419,-1.33185 -1.303279,-1.7017 -0.6789,-0.56066 -1.088194,-0.72967 -1.767334,-0.72967 z m 0.164331,1.23351 c 0.503635,0.007 1.038493,0.28335 1.333252,0.74931 0.15585,0.24638 0.150514,0.25623 -0.612366,1.11983 -0.42337,0.47925 -0.872639,0.97063 -0.998389,1.09192 l -0.228409,0.22066 -0.247014,-0.32091 c -0.82276,-1.06805 -0.778175,-2.15266 0.111105,-2.69492 0.190296,-0.11604 0.412896,-0.1689 0.641821,-0.16589 z" /><path
       style="fill:#000000;stroke-width:0.369641"
       d="m 75.947491,158.83133 c -0.27251,-0.28226 -0.30128,-0.61002 -0.082,-0.93426 0.32815,-0.48527 0.92872,-0.47142 1.2451,0.0288 0.46912,0.74159 -0.55304,1.5374 -1.16307,0.90551 z"
       id="path77" /><path
       style="fill:#000000;stroke-width:0.369641"
       d="m 142.23119,159.40718 c -0.0672,-0.028 -0.18702,-0.18085 -0.2663,-0.33966 -0.38292,-0.76699 0.47979,-1.44911 1.06547,-0.84246 0.56973,0.59014 -0.0434,1.49708 -0.79917,1.18212 z"
       id="path76" /><path
       style="fill:#000000;stroke-width:0.369641"
       d="m 81.254551,159.74522 c -0.3029,-0.20181 -0.44921,-0.36301 -0.42315,-0.46623 0.0219,-0.0868 0.70164,-1.27662 1.51051,-2.6441 0.80887,-1.36748 1.58275,-2.67669 1.71973,-2.90936 0.13698,-0.23267 0.27099,-0.42202 0.2978,-0.42078 0.0268,0.002 0.27292,0.14687 0.54691,0.32362 l 0.49815,0.32138 -1.68361,2.93621 c -1.71707,2.99454 -1.83757,3.19152 -1.94304,3.17638 -0.0332,-0.005 -0.26865,-0.14747 -0.5233,-0.31712 z"
       id="path75" /><path
       style="fill:#000000;stroke-width:0.369641"
       d="m 134.47774,158.25627 c -0.78469,-1.54755 -1.57297,-3.08952 -1.75174,-3.42659 l -0.32504,-0.61285 0.54041,-0.32027 c 0.45611,-0.27031 0.56015,-0.29892 0.66688,-0.18344 0.15826,0.17123 3.41182,6.51477 3.41182,6.6521 0,0.0796 -0.43192,0.35503 -1.06232,0.67752 -0.0293,0.0149 -0.69532,-1.23892 -1.48001,-2.78647 z"
       id="path74" /><path
       style="fill:#000000;stroke-width:0.369641"
       d="m 129.88029,160.09012 c -0.7241,-1.7965 -1.31657,-3.31337 -1.31657,-3.3708 0,-0.093 1.05091,-0.57436 1.10803,-0.50747 0.0127,0.0149 0.21845,0.49733 0.45724,1.07215 0.23879,0.57484 0.8527,2.04553 1.36425,3.26823 0.51156,1.22271 0.91573,2.2362 0.89817,2.25223 -0.0735,0.067 -0.81604,0.43111 -0.99762,0.48912 -0.17967,0.0574 -0.31233,-0.22338 -1.5135,-3.20346 z"
       id="path70" /><path
       style="fill:#000000;stroke-width:0.369641"
       d="m 95.459091,165.83918 c -1.77743,-0.53442 -2.97839,-0.92548 -3.05866,-0.99595 -0.0438,-0.0384 0.13993,-0.72866 0.4084,-1.53369 0.56286,-1.68781 0.61595,-2.21933 0.25862,-2.58944 -0.24277,-0.25148 -0.88752,-0.43522 -1.01148,-0.28828 -0.0404,0.0479 -0.36671,0.91577 -0.72508,1.92856 -0.35837,1.01279 -0.66191,1.85378 -0.67453,1.86886 -0.0126,0.0151 -0.58838,-0.20026 -1.27947,-0.47858 -2.57228,-1.03587 -3.26415,-1.82134 -3.17327,-3.60258 0.0342,-0.67097 0.0991,-0.94353 0.35004,-1.47093 0.16941,-0.35603 0.40765,-0.77676 0.52941,-0.93494 0.22106,-0.28716 0.22218,-0.2874 0.7432,-0.16101 0.8005,0.19418 0.81107,0.20896 0.4679,0.65459 -0.5893,0.76528 -0.80268,1.32037 -0.807,2.09941 -0.004,0.64508 0.0234,0.7481 0.28696,1.09491 0.19555,0.25735 0.55776,0.52115 1.10509,0.80485 0.4478,0.23213 0.85743,0.42192 0.91028,0.42175 0.0529,-1.6e-4 0.37348,-0.78165 0.7125,-1.73665 0.33903,-0.955 0.64465,-1.78367 0.67915,-1.84151 0.0432,-0.0724 0.31509,-0.0559 0.87306,0.053 2.36763,0.46223 2.94505,1.46404 2.21114,3.8363 -0.16265,0.52573 -0.29573,1.00581 -0.29573,1.06682 0,0.1189 1.57088,0.65325 1.74434,0.59336 0.0571,-0.0197 0.46214,-1.36974 0.90004,-3.00003 0.43789,-1.6303 0.81815,-2.98694 0.84502,-3.01477 0.0913,-0.0945 1.22972,0.29046 1.1895,0.40227 -0.0217,0.0605 -0.44333,1.68879 -0.93686,3.61856 -0.81488,3.18628 -0.91544,3.50799 -1.09448,3.50133 -0.10843,-0.004 -0.62957,-0.13735 -1.15809,-0.29626 z"
       id="path69" /><path
       style="fill:#000000;stroke-width:0.369641"
       d="m 99.014591,166.69683 c -0.52847,-0.10741 -0.57447,-0.13748 -0.55148,-0.3605 0.0192,-0.18646 0.75494,-3.7772 1.42303,-6.94526 0.0449,-0.21293 0.0822,-0.22625 0.453539,-0.16172 0.9185,0.15963 0.90719,-0.24451 0.10754,3.84573 -0.38873,1.98834 -0.707929,3.64874 -0.709349,3.6898 -0.002,0.041 -0.035,0.0689 -0.0746,0.0619 -0.0396,-0.007 -0.33152,-0.0655 -0.64863,-0.12994 z"
       id="path68" /><path
       style="fill:#000000;stroke-width:0.369641"
       d="m 104.08359,167.46292 c -0.49605,-0.036 -0.5045,-0.0419 -0.50453,-0.35486 -3e-5,-0.26141 0.33032,-3.57625 0.6517,-6.53934 l 0.0702,-0.64699 0.52796,0.0341 c 0.29037,0.0188 0.56827,0.0739 0.61754,0.12265 0.0833,0.0824 -0.48212,7.20292 -0.5863,7.38316 -0.0237,0.0411 -0.0947,0.0664 -0.1576,0.0563 -0.063,-0.0101 -0.34147,-0.0349 -0.61894,-0.055 z"
       id="path67" /><path
       id="path66"
       style="fill:#000000;stroke-width:0.369641"
       d="m 128.13688,159.34945 -0.7338,0.063 c -1.34346,0.11606 -2.19477,0.51223 -2.71302,1.26194 -0.83204,1.20368 -0.36423,3.3236 0.8816,3.99562 0.66314,0.3577 1.30316,0.36821 2.18902,0.0351 0.35581,-0.13379 0.68202,-0.22077 0.72502,-0.19327 0.12989,0.0832 0.0876,0.72549 -0.0682,1.03766 -0.0809,0.162 -0.37065,0.4261 -0.64853,0.59067 -0.43572,0.25807 -0.76203,0.361 -1.7632,0.55707 -0.185,0.0362 -0.19603,0.0787 -0.12403,0.46457 0.0436,0.23342 0.0812,0.46415 0.0832,0.51315 0.007,0.14644 1.17759,-0.0123 1.7632,-0.23927 1.51249,-0.58616 2.18601,-1.54121 2.04949,-2.90576 -0.0328,-0.32843 -0.3904,-1.53988 -0.84853,-2.87424 z m -0.95033,1.19889 0.44959,1.32912 c 0.24725,0.73092 0.44873,1.3621 0.44803,1.4025 -6.2e-4,0.0403 -0.14584,0.13569 -0.32298,0.21239 -1.14216,0.49431 -1.92728,0.10909 -2.18229,-1.07126 -0.10092,-0.46713 -0.0924,-0.57486 0.0816,-0.98237 0.21356,-0.50009 0.52437,-0.72416 1.14721,-0.82733 z" /><path
       style="fill:#000000;stroke-width:0.369641"
       d="m 98.389971,169.44736 c -0.60779,-0.13254 -1.12001,-0.25522 -1.13825,-0.27261 -0.0182,-0.0174 -0.004,-0.16921 0.0317,-0.33736 0.0449,-0.21185 0.1215,-0.30572 0.24938,-0.30572 0.13248,0 0.18455,-0.0698 0.18455,-0.24728 0,-0.136 0.12033,-0.38676 0.26738,-0.55723 0.33297,-0.38602 0.946,-0.49131 1.48991,-0.25591 l 0.3581,0.15499 -0.16001,0.34757 c -0.15626,0.33941 -0.16633,0.3442 -0.42831,0.20388 -0.33964,-0.18193 -0.42104,-0.18023 -0.6073,0.0127 -0.29536,0.30593 -0.12059,0.53045 0.53424,0.68633 0.48165,0.11465 0.5146,0.1414 0.49574,0.40251 -0.0111,0.15383 -0.0544,0.30881 -0.0961,0.3444 -0.0417,0.0357 -0.57319,-0.0437 -1.18098,-0.17627 z"
       id="path64" /><path
       style="fill:#000000;stroke-width:0.369641"
       d="m 114.62999,169.62655 c -0.26713,-0.27669 -0.24751,-0.74803 0.0436,-1.04965 0.29539,-0.30597 0.54522,-0.30941 0.87894,-0.0121 0.50972,0.45414 0.22002,1.26079 -0.45279,1.26079 -0.1527,0 -0.36413,-0.0896 -0.46983,-0.19907 z"
       id="path63" /><path
       style="fill:#000000;stroke-width:0.369641"
       d="m 111.45886,169.82562 c -0.28613,-0.29638 -0.25625,-0.82918 0.061,-1.08767 0.13926,-0.11347 0.32802,-0.20629 0.41947,-0.20629 0.0914,0 0.28021,0.0928 0.41947,0.20629 0.50772,0.41368 0.2231,1.28675 -0.41947,1.28675 -0.16016,0 -0.3737,-0.0885 -0.48048,-0.19908 z"
       id="path62" /><path
       style="fill:#000000;stroke-width:0.369641"
       d="m 110.06215,170.0286 c -0.74567,-0.30954 -0.53785,-1.44223 0.26031,-1.41873 0.20263,0.006 0.37942,0.0878 0.48702,0.22544 0.44903,0.57441 -0.10543,1.45975 -0.74733,1.19329 z"
       id="path61" /><path
       style="fill:#000000;stroke-width:0.369641"
       d="m 105.0815,170.0534 c -0.14828,-0.0395 -0.16921,-0.11058 -0.12117,-0.41148 0.0319,-0.20006 0.0585,-0.4338 0.0591,-0.51941 7e-4,-0.128 0.10004,-0.14824 0.55819,-0.11391 0.4953,0.0371 0.5911,0.0122 0.86304,-0.22488 0.17524,-0.15273 0.34449,-0.42294 0.39626,-0.63261 0.0497,-0.2013 0.11683,-1.32901 0.14919,-2.50604 0.0324,-1.17702 0.0831,-2.35279 0.11266,-2.61284 0.052,-0.45665 0.0646,-0.47279 0.36913,-0.47279 0.17342,0 0.44246,0.0264 0.59787,0.0585 l 0.28257,0.0585 -0.0427,1.93219 -0.0427,1.93221 h 1.26166 1.26167 v -1.94096 -1.94098 h 0.56287 0.56289 l 0.0617,0.61182 c 0.034,0.33651 0.0617,1.1941 0.0617,1.90575 v 1.29392 l 1.21954,-0.0702 c 0.67073,-0.0386 1.24558,-0.0869 1.27742,-0.10724 0.0318,-0.0204 -0.0194,-0.8556 -0.11389,-1.85604 -0.0945,-1.00043 -0.1396,-1.84949 -0.10027,-1.8868 0.0628,-0.0596 1.1766,-0.18849 1.1766,-0.13624 0,0.12828 0.30475,3.08074 0.34756,3.36719 l 0.0575,0.3849 0.59025,-0.066 c 0.76181,-0.0851 3.21616,-0.4413 3.49711,-0.50742 0.28654,-0.0675 0.27343,-0.26985 -0.0655,-1.01197 -0.43866,-0.96047 -1.22417,-1.45602 -2.32684,-1.46792 l -0.54253,-0.006 -0.0525,-0.54745 -0.0525,-0.54745 1.7422,-1.77763 c 1.91928,-1.9583 1.82052,-1.91373 1.95276,-0.88117 l 0.0613,0.47849 -0.70649,0.70094 c -0.38857,0.38551 -0.87445,0.85669 -1.07974,1.04706 l -0.37326,0.34611 0.58557,0.22117 c 1.30569,0.49312 1.98712,1.39943 2.36924,3.15111 0.12994,0.59566 0.21816,1.10175 0.19605,1.12466 -0.0682,0.0706 -4.05511,0.68705 -5.52742,0.85454 -2.40271,0.27332 -3.80604,0.35854 -5.90374,0.35854 h -2.03204 l -0.16013,0.70673 c -0.28667,1.26529 -0.92392,1.7913 -2.1445,1.77014 -0.36649,-0.007 -0.74701,-0.033 -0.8456,-0.0592 z"
       id="path60" /><path
       style="fill:#000000;stroke-width:0.369641"
       d="m 106.79827,176.33216 c -3.68451,-0.24359 -7.526909,-0.81946 -10.954799,-1.64182 -13.1753,-3.16081 -25.5988,-11.13995 -34.44346,-22.12174 -1.21037,-1.50284 -2.98544,-3.91821 -2.98544,-4.06237 0,-0.048 0.0757,-0.11361 0.16816,-0.14581 0.0925,-0.0322 0.72405,-0.33164 1.40345,-0.66544 1.20062,-0.58986 1.23913,-0.60141 1.37199,-0.41114 2.48077,3.55271 6.07131,7.53256 9.7409,10.79705 1.12905,1.00441 4.33864,3.52024 5.67998,4.45224 6.19079,4.30155 13.42576,7.50619 20.60998,9.12893 4.798709,1.08391 9.023529,1.51249 13.973739,1.41752 7.32778,-0.14058 13.9112,-1.50579 20.61232,-4.27437 18.61326,-7.76763 30.67399,-22.68535 36.17755,-37.54564 0.93196,0.28995 1.89271,0.71686 2.61916,0.93415 -0.5925,1.62586 -1.90645,4.99967 -4.08318,9.11461 -6.44743,12.18841 -17.5237,22.92942 -29.7817,28.88026 -6.61921,3.21341 -13.65662,5.23685 -20.73942,5.96313 -1.50972,0.15481 -7.89645,0.27781 -9.36923,0.18044 z"
       id="path1-4"
       sodipodi:nodetypes="ssssssssssssccssss" /><path
       style="fill:#000000;stroke-width:0.291929"
       d="m 126.29893,113.23226 c -1.57238,-1.10586 -3.31712,-2.44597 -3.37027,-2.58867 -0.0222,-0.0596 0.0203,-0.24776 0.0945,-0.41834 0.23235,-0.53464 2.29295,-4.03351 2.40052,-4.07604 0.14132,-0.0559 0.33461,0.0597 1.25128,0.74738 0.43701,0.3279 1.37871,1.00634 2.0927,1.50765 0.8776,0.61621 1.30582,0.96376 1.32181,1.07284 0.0512,0.34877 -2.23997,4.64333 -2.47502,4.63928 -0.033,-5.8e-4 -0.6249,-0.39842 -1.31549,-0.8841 z"
       id="path89-1" /><path
       style="fill:#000000;stroke-width:0.292847"
       d="m 133.99072,112.19372 c -1.57305,-1.11234 -3.31854,-2.46031 -3.37171,-2.60384 -0.0222,-0.0599 0.0204,-0.24922 0.0945,-0.42079 0.23245,-0.53778 2.29395,-4.05717 2.40157,-4.09996 0.14137,-0.0563 0.33474,0.06 1.25182,0.75178 0.43718,0.32981 1.3793,1.01223 2.09359,1.51648 0.87798,0.61982 1.30638,0.96942 1.32239,1.07915 0.0512,0.3508 -2.24094,4.67054 -2.4761,4.66646 -0.033,-5.8e-4 -0.62516,-0.40075 -1.31606,-0.88928 z"
       id="path89-2" /><g
       id="g1"
       transform="matrix(1.2121595,0,0,1.2121595,-119.26574,-377.88666)"><path
         id="path99-1"
         style="fill:#000000;stroke-width:0.369641"
         d="m 200.93025,373.60178 c -0.96619,1.4566 -3.78945,4.64594 -7.52694,6.06385 1.37036,1.74759 2.6014,5.57126 -1.28726,8.87595 -3.65424,3.10546 -13.47613,-2.21489 -17.05219,12.98112 4.57587,-6.23262 6.33177,-3.52122 11.45821,-2.9006 11.27959,1.36553 21.97171,-12.02116 14.40818,-25.02032 z"
         sodipodi:nodetypes="ccscsc" /><path
         id="path13"
         style="fill:#000000;fill-opacity:1;stroke:none;stroke-width:1.54515;stroke-linejoin:round;stroke-dasharray:none;stroke-opacity:1"
         d="m 177.49032,387.08383 v -9.22063 c 0,-0.35527 -0.28604,-0.6413 -0.64131,-0.6413 h -2.73988 c -0.35527,0 -0.6413,0.28603 -0.6413,0.6413 v 15.04094 c 0,0.35527 0.28603,0.64131 0.6413,0.64131 h 1.06764 c 0.49439,-1.97485 1.20645,-4.16517 2.31355,-6.46162 z"
         sodipodi:nodetypes="csssssscc" /><path
         id="path8"
         style="fill:#0f766e;fill-opacity:1;stroke:none;stroke-width:1.384;stroke-linejoin:round;stroke-dasharray:none;stroke-opacity:1"
         d="m 188.57953,371.59331 v -4.2013 c 0,-0.28503 -0.22916,-0.51469 -0.51418,-0.51469 h -2.99362 c -0.28503,0 -0.5147,0.22966 -0.5147,0.51469 v 8.54573 c 0.9714,-1.29698 2.2931,-2.71618 4.0225,-4.34443 z"
         sodipodi:nodetypes="csssscc" /><path
         id="path11"
         style="fill:#15803d;fill-opacity:1;stroke:none;stroke-width:1.384;stroke-linejoin:round;stroke-dasharray:none;stroke-opacity:1"
         d="m 182.94812,378.27016 v -5.92677 c 0,-0.28503 -0.22915,-0.5147 -0.51418,-0.5147 h -2.99362 c -0.28502,0 -0.51469,0.22967 -0.51469,0.5147 v 11.92433 c 1.09388,-2.15188 2.59416,-4.15973 4.02249,-5.99756 z"
         sodipodi:nodetypes="csssscc" /><path
         id="path18"
         style="fill:none;fill-opacity:1;stroke:#000000;stroke-width:1.38405;stroke-linejoin:round;stroke-dasharray:none;stroke-opacity:1"
         d="m 174.65788,394.04543 a 16.615322,16.615322 0 0 1 -4.88982,-11.77205 16.615322,16.615322 0 0 1 16.61533,-16.61533 16.615322,16.615322 0 0 1 6.28561,1.23482" /><path
         style="display:inline;fill:#ff8100;fill-opacity:1;stroke-width:0.35654"
         d="m 183.20923,379.26805 c 2.53381,-3.65489 4.35018,-5.7407 9.25656,-10.62963 9.50443,-9.47063 8.06932,-11.37261 8.47762,-11.62205 0.55901,0.74692 1.01785,2.59394 1.28243,4.53769 0.22155,1.62754 0.22451,4.30734 0.006,5.62427 -0.59381,3.58236 -2.30972,6.58683 -5.18843,9.08468 -0.9961,0.8643 -2.06636,1.57671 -4.27523,2.84577 -6.74652,3.87604 -6.53372,6.05239 -4.06235,5.11787 -0.37246,1.07892 -1.83331,2.65844 -2.83287,1.29458 -0.25573,-0.47659 -0.14984,-1.64344 0.21728,-2.39418 0.44001,-0.89981 1.36994,-2.04563 2.6652,-3.28395 1.1184,-1.06923 1.88543,-1.66978 4.64084,-3.63361 1.67342,-1.19268 3.18113,-2.49355 3.91631,-3.37905 2.26753,-2.73118 3.50991,-6.33618 3.53508,-10.25774 0.01,-1.50572 0.0576,-2.12677 -0.12038,-2.43686 -4.09916,8.22281 -9.92485,11.51827 -15.33809,18.92074 -5.37514,7.35038 -9.30865,16.09987 -10.86121,22.59589 0.87437,-7.2966 1.48215,-12.00007 8.68124,-22.38442 z"
         id="path98-5"
         sodipodi:nodetypes="sscscsscsssssccscs" /></g></g></svg>
